# xmcd
#
# Track frame offsets:
#	183
#	11920
#	23320
#	46270
#	63183
#	84220
#	110008
#	122733
#	135258
#	151283
#	161108
#	172558
#	184158
#	196458
#	211320
#	223745
#	239208
#	250483
#	262208
#	275258
#
# Disc length: 3898
#
# Revision: 1
# Processed by: cddbd v1.5.1PL0 Copyright (c) Steve Scherf et al.
# Submitted via: VisiTrax 2.9.3.171 - For more info visit www.synapsa.com
# Normalized: r0:DSETVAR1
#
DISCID=180f3814
DTITLE=Various Artist - World of Solid Soul
DYEAR=1900
DGENRE=
TTITLE0=Brook Benton - Boll Weevil Song
TTITLE1=Mel and Tim - Backfield In Motion
TTITLE2=The Chi-Lites - Have You Seen Her?
TTITLE3=Billy Ocean - Red Light Spells Danger: (1987 Mix)
TTITLE4=Gladys Knight and the Pips - Midnight Train To Georgia
TTITLE5=Ramsey Lewis - The 'In' Crowd
TTITLE6=Mary Wells - My Guy
TTITLE7=Dionne Warwick - Walk On By
TTITLE8=The Chi-Lites - Homely Girl
TTITLE9=Betty Everett - The Shoop Shoop Song (It's In His Kiss)
TTITLE10=Robert Parker - Barefootin'
TTITLE11=Brook Benton - Kiddio
TTITLE12=Jerry Butler - For Your Precious Love
TTITLE13=Jackie Ross - Selfish One
TTITLE14=Dionne Warwick - Don't Make Me Over
TTITLE15=Billy Ocean - Love Really Hurts Without You
TTITLE16=Bobby Moore and The Rhythm Aces - Searching For My Love
TTITLE17=Barbara Lewis - Hello Stranger
TTITLE18=Fontella Bass - Rescue Me
TTITLE19=Gladys Knight and the Pips - You're The Best Thing That Ever Happened To Me
EXTD=
EXTT0=
EXTT1=
EXTT2=
EXTT3=
EXTT4=
EXTT5=
EXTT6=
EXTT7=
EXTT8=
EXTT9=
EXTT10=
EXTT11=
EXTT12=
EXTT13=
EXTT14=
EXTT15=
EXTT16=
EXTT17=
EXTT18=
EXTT19=
PLAYORDER=
